<?xml version="1.0" encoding="utf-8"?>
<!-- Generator: Adobe Illustrator 23.0.6, SVG Export Plug-In . SVG Version: 6.00 Build 0)  -->
<svg version="1.1" id="Layer_1" xmlns="http://www.w3.org/2000/svg" xmlns:xlink="http://www.w3.org/1999/xlink" x="0px" y="0px"
	 viewBox="0 0 568.89 175.11" style="enable-background:new 0 0 568.89 175.11;" xml:space="preserve">
<style type="text/css">
	.st0{fill:#FFFFFF;}
</style>
<g>
	<path class="st0" d="M227.85,48.44c2.56,0,13.74-0.83,27.34,9.42c0.61,0.46,0.73,1.33,0.29,1.95l-6.53,9.15
		c-0.47,0.66-1.38,0.79-2.02,0.3c-1.2-0.93-3.25-2.4-5.65-3.63c-3.86-1.97-8.99-3.64-13.42-3.64s-11.54,1.45-11.54,8.42
		c0,5.61,4.96,7.72,20.26,11.49c9.96,2.59,21.58,7.37,21.58,22.63c0,14.04-11.67,22.89-27.76,22.89c-9.7,0-23-3.68-31.44-12.19
		c-0.51-0.52-0.53-1.35-0.05-1.9l7.34-8.65c0.52-0.61,1.45-0.67,2.04-0.12c2.79,2.61,10.95,9.22,22.07,9.22
		c13.25,0,12.72-7.98,12.72-9.17c0-2.54-1.84-6.1-8.38-7.94c-6.54-1.84-22.94-4.91-29.08-12.06c-3.77-4.47-4.3-9.43-4.3-13.16
		C201.32,63.04,206.76,48.44,227.85,48.44z"/>
	<path class="st0" d="M296.19,66.71c-11.81,0-18.19,8.69-18.19,8.69v-6.02c0-0.78-0.63-1.42-1.42-1.42h-12.12
		c-0.78,0-1.42,0.63-1.42,1.42v72.77c0,0.78,0.63,1.42,1.42,1.42h12.17c0.78,0,1.42-0.63,1.42-1.42v-22.67c0,0,5.92,7.94,18.78,7.94
		c10.2,0,26.64-8.19,26.64-30.11C323.46,75.4,308,66.71,296.19,66.71z M293.04,114.48c-8.25,0-15.25-7.17-15.25-17.42
		c0-6.25,3.92-17.17,15.08-17.17s15.42,9,15.42,17.17C308.29,105.23,303.79,114.48,293.04,114.48z"/>
	<path class="st0" d="M358.46,66.71c-19.08,0-30.92,15.69-30.92,30.48c0,16.21,12.58,30.38,31.04,30.38
		c18.46,0,31.04-14.58,31.04-30.38C389.63,81.4,377.54,66.71,358.46,66.71z M358.58,114.48c-7.79,0-16.29-6.52-16.29-17.34
		s7.67-17.24,16.29-17.24c6.63,0,16.04,5.48,16.04,17.24S366.38,114.48,358.58,114.48z"/>
	<path class="st0" d="M427.79,79.57V69.24c0-0.78-0.63-1.42-1.42-1.42h-13.83v-14c0-0.78-0.63-1.42-1.42-1.42h-11.92
		c-0.78,0-1.42,0.63-1.42,1.42v14h-5.83c-0.78,0-1.42,0.63-1.42,1.42v10.33c0,0.78,0.63,1.42,1.42,1.42h5.83c0,0,0,22.67,0,29.25
		s3,17,16.08,17c6.02,0,11.16-2.11,13.1-3.01c0.5-0.23,0.82-0.73,0.82-1.29v-10.12c0-0.91-1.02-1.46-1.77-0.94
		c-1.37,0.94-3.6,1.94-6.9,1.94c-6.25,0-6.58-4.25-6.58-7.25s0-25.58,0-25.58h13.83C427.16,80.98,427.79,80.35,427.79,79.57z"/>
	<circle class="st0" cx="441.34" cy="51.52" r="9.21"/>
	<path class="st0" d="M447.29,126.23h-11.94c-0.78,0-1.42-0.63-1.42-1.42V69.24c0-0.78,0.63-1.42,1.42-1.42h11.94
		c0.78,0,1.42,0.63,1.42,1.42v55.58C448.71,125.6,448.08,126.23,447.29,126.23z"/>
	<path class="st0" d="M461.88,80.98h-5.75c-0.78,0-1.42-0.63-1.42-1.42V69.24c0-0.78,0.63-1.42,1.42-1.42h5.75c0,0,0-1.25,0-3.75
		s0.42-18.25,18.08-18.25c8.75,0,11.6,1.96,11.6,1.96s0,9.56,0,10.63s-0.38,1.94-1.5,1.5s-4.44-1.31-7.13-1.31s-6.38,1.56-6.38,6.31
		c0,1.69,0,2.92,0,2.92h21.65c0.59,0,1.11,0.36,1.32,0.91l15.15,39.18l13.61-39.05c0.2-0.57,0.74-0.95,1.34-0.95h13.31
		c0.63,0,1.07,0.63,0.84,1.21c-3.12,8.08-20.81,53.85-23.09,59.66c-2.5,6.38-6.75,15.06-18.94,15.06c-7.07,0-11.63-2.37-13.53-3.61
		c-0.59-0.39-0.81-1.15-0.51-1.79l4.34-9.31c0.18-0.39,0.66-0.54,1.03-0.31c1.24,0.76,4.07,2.24,7.36,2.24c4.84,0,7-5.72,7-5.72
		l-18.56-44.35h-12.22v43.94c0,0.78-0.63,1.42-1.42,1.42h-11.98c-0.78,0-1.42-0.64-1.42-1.42L461.88,80.98z"/>
	<g>
		<path class="st0" d="M551.06,71.86h4.42c1.23,0,2.18,0.35,2.82,0.98c0.54,0.54,0.83,1.3,0.83,2.21v0.03c0,1.56-0.84,2.54-2.07,3
			l2.36,3.46h-2.49l-2.07-3.1h-0.03h-1.65v3.1h-2.13V71.86z M555.35,76.57c1.04,0,1.63-0.55,1.63-1.37v-0.03
			c0-0.91-0.64-1.38-1.67-1.38h-2.12v2.78H555.35z"/>
	</g>
	<g>
		<path class="st0" d="M554.92,86.07c-5.04,0-9.14-4.1-9.14-9.14s4.1-9.14,9.14-9.14s9.14,4.1,9.14,9.14S559.96,86.07,554.92,86.07z
			 M554.92,68.79c-4.49,0-8.14,3.65-8.14,8.14s3.65,8.14,8.14,8.14s8.14-3.65,8.14-8.14S559.4,68.79,554.92,68.79z"/>
	</g>
	<g>
		<path class="st0" d="M89.32,3.76c-46.24,0-83.73,37.49-83.73,83.73s37.49,83.73,83.73,83.73c46.24,0,83.73-37.49,83.73-83.73
			S135.57,3.76,89.32,3.76z M127.66,124.66c-1.03,1.72-2.85,2.67-4.72,2.67c-0.96,0-1.94-0.25-2.83-0.79
			c-32.97-19.83-72.06-8.36-72.45-8.24c-2.9,0.88-5.98-0.76-6.86-3.67s0.75-5.97,3.65-6.86c1.78-0.54,44.07-13.07,81.33,9.34
			C128.38,118.67,129.22,122.05,127.66,124.66z M138.06,101.48c-1.2,2.09-3.39,3.26-5.64,3.26c-1.1,0-2.21-0.28-3.23-0.87
			c-41.42-23.82-83.15-9.95-83.57-9.81c-3.4,1.16-7.09-0.64-8.26-4.04c-1.16-3.4,0.65-7.09,4.04-8.26
			c1.93-0.66,47.78-15.89,94.26,10.84C138.77,94.39,139.84,98.37,138.06,101.48z M142.7,79.11c-1.25,0-2.53-0.3-3.71-0.92
			C91.24,53.12,42.2,68.13,41.71,68.29c-4.21,1.33-8.71-1.01-10.04-5.22c-1.33-4.21,1.01-8.71,5.22-10.04
			c2.26-0.71,55.95-17.14,109.54,11c3.91,2.05,5.42,6.89,3.36,10.8C148.36,77.56,145.58,79.11,142.7,79.11z"/>
	</g>
</g>
</svg>
